mtllib materials.mtl
v -0.6117639 -0.6176473 0.9317645
v -0.5317639 -0.6176473 1.011765
v -0.5317639 0.9323525 1.011765
v -0.6917639 -0.6176473 0.8517644
v -0.6917639 0.9323525 0.8517644
v -0.6917639 0.9323525 1.011765
v -0.6917639 -0.6176473 1.011765
v -0.6117639 0.9323525 0.9317645
v 0.7682359 -0.6776474 -1.128235
v 0.7682359 -0.6776474 1.011765
v 0.7682359 -0.6176473 1.011765
v 0.7682359 -0.6176473 -1.128235
v -0.691764 -0.6776474 -1.128235
v -0.691764 -0.6176473 -1.128235
v -0.6917639 -0.6176473 1.011765
v -0.6917639 -0.6776474 1.011765
v -0.6917639 -0.6176471 -1.128236
v -0.6917645 -0.6176474 1.011764
v -0.6917645 -0.1676474 1.011764
v -0.6917639 -0.167647 -1.128236
v -0.7417638 -0.6176471 -1.128236
v -0.7417638 -0.167647 -1.128236
v -0.7417645 -0.1676474 1.011764
v -0.7417645 -0.6176474 1.011764
v -0.6917639 -0.0676471 -1.128236
v -0.6917645 -0.06764746 1.011764
v -0.6917645 0.3823526 1.011765
v -0.6917639 0.3823528 -1.128236
v -0.7417638 -0.0676471 -1.128236
v -0.7417638 0.3823528 -1.128236
v -0.7417645 0.3823526 1.011765
v -0.7417645 -0.06764746 1.011764
v -0.6917633 0.4823527 -1.128236
v -0.6917639 0.4823523 1.011764
v -0.6917639 0.9323525 1.011764
v -0.6917633 0.9323528 -1.128236
v -0.7417632 0.4823527 -1.128236
v -0.7417632 0.9323528 -1.128236
v -0.7417639 0.9323525 1.011764
v -0.7417639 0.4823523 1.011764
v -0.5317639 -0.6176473 -1.128236
v -0.6117639 -0.6076473 -1.048235
v -0.5317639 0.9323525 -1.128235
v -0.6917639 -0.6176473 -1.128236
v -0.6917639 0.9323525 -1.128235
v -0.6917639 0.9323525 -0.9682353
v -0.6917639 -0.6176473 -0.9682355
v -0.6217639 0.9223526 -1.038235
v 0.7782383 -0.6176471 1.061765
v -0.6917637 -0.6176474 1.061764
v -0.6917639 -0.1676474 1.061764
v 0.7782381 -0.167647 1.061765
v 0.7782383 -0.6176471 1.011765
v 0.7782373 -0.167647 1.011765
v -0.6917639 -0.1676474 1.011764
v -0.6917637 -0.6176474 1.011764
v 0.7682366 0.482352 1.06176
v -0.6917639 0.482352 1.061764
v -0.6917641 0.9323521 1.061764
v 0.7682362 0.9323523 1.06176
v 0.7682371 0.482352 1.01176
v 0.7682366 0.9323523 1.01176
v -0.6917641 0.9323521 1.011765
v -0.6917639 0.482352 1.011765
v 0.7682371 -0.06764746 1.061765
v -0.6917639 -0.06764746 1.061764
v -0.6917641 0.3823526 1.061764
v 0.7682366 0.3823526 1.061765
v 0.7682371 -0.06764746 1.011765
v 0.7682366 0.3823526 1.011765
v -0.6917641 0.3823526 1.011764
v -0.6917639 -0.06764746 1.011764
v -0.6917669 -0.0676471 -1.178235
v 0.7682343 -0.0676471 -1.178234
v 0.7682345 0.3823528 -1.178234
v -0.6917663 0.3823528 -1.178235
v -0.6917669 -0.0676471 -1.128235
v -0.6917661 0.3823528 -1.128235
v 0.7682345 0.3823528 -1.128234
v 0.7682343 -0.0676471 -1.128234
v -0.6917681 -0.6176467 -1.178235
v 0.768234 -0.6176471 -1.178234
v 0.7682343 -0.167647 -1.178234
v -0.6917676 -0.1676466 -1.178235
v -0.6917681 -0.6176467 -1.128235
v -0.6917672 -0.1676466 -1.128235
v 0.7682343 -0.167647 -1.128234
v 0.768234 -0.6176471 -1.128234
v -0.6917663 0.4823525 -1.17823
v 0.7682343 0.4823525 -1.178235
v 0.7682345 0.9323525 -1.178235
v -0.6917658 0.9323528 -1.17823
v -0.6917667 0.4823525 -1.12823
v -0.6917661 0.9323528 -1.12823
v 0.7682345 0.9323525 -1.128235
v 0.7682343 0.4823525 -1.128235
v 0.6782343 -0.587647 -1.038235
v 0.6082344 -0.6176469 -1.128235
v 0.6082344 0.932353 -1.128235
v 0.7682343 -0.6176469 -0.9682348
v 0.7682343 0.932353 -0.968235
v 0.7682343 0.932353 -1.128235
v 0.7682343 -0.6176469 -1.128235
v 0.6882343 0.932353 -1.048235
v 0.7682345 -0.06764638 1.011765
v 0.7682352 -0.0676471 -1.128235
v 0.7682352 0.3823528 -1.128235
v 0.7682345 0.3823538 1.011765
v 0.8182344 -0.06764638 1.011765
v 0.8182344 0.3823538 1.011765
v 0.8182352 0.3823528 -1.128235
v 0.8182352 -0.0676471 -1.128235
v 0.7682338 0.4823537 1.011765
v 0.7682345 0.482353 -1.128234
v 0.7682345 0.932353 -1.128235
v 0.7682338 0.932354 1.011765
v 0.8182337 0.4823537 1.011765
v 0.8182337 0.932354 1.011765
v 0.8182344 0.932353 -1.128235
v 0.8182344 0.482353 -1.128234
v 0.7682345 -0.6176463 1.011765
v 0.7682352 -0.6176471 -1.128234
v 0.7682352 -0.167647 -1.128235
v 0.7682345 -0.1676463 1.011765
v 0.8182344 -0.6176463 1.011765
v 0.8182344 -0.1676463 1.011765
v 0.8182352 -0.167647 -1.128235
v 0.8182352 -0.6176471 -1.128234
v 0.6082344 -0.6176466 1.011765
v 0.6782343 -0.6076466 0.9317651
v 0.6082344 0.9323533 1.011765
v 0.7682343 -0.6176466 1.011765
v 0.7682343 0.9323533 1.011765
v 0.7682343 0.9323533 0.8517644
v 0.7682343 -0.6176466 0.851765
v 0.6882343 0.9223533 0.9317645
vn 0.7071068 2.69451E-08 -0.7071068
vn -1 1.026257E-08 0
vn 0 -1 4.516914E-08
vn 0 -1 -4.516914E-08
vn 0.7071068 -2.584469E-08 -0.7071068
vn 7.27034E-09 -2.884096E-08 1
vn 0 1 -2.421396E-08
vn 0 1 -2.421396E-08
vn 0.7071071 -3.908821E-10 -0.7071065
vn 0.7071071 3.908821E-10 -0.7071065
vn 1 -7.004003E-07 0
vn -1 -4.604967E-08 5.222369E-08
vn 0 -1 1.011097E-10
vn -1.530941E-08 1 1.146918E-08
vn -1.197539E-08 0 -1
vn -1.429731E-08 3.725287E-07 1
vn 1 -6.239056E-09 3.06379E-07
vn -1 -1.565884E-09 -3.06379E-07
vn -1.037593E-15 -1 -1.663507E-07
vn -7.263148E-15 1 1.492211E-07
vn -9.748679E-07 1.748456E-07 -1
vn -2.152407E-08 -2.576298E-07 1
vn 1 -6.239056E-09 3.06379E-07
vn -1 -1.565884E-09 -3.06379E-07
vn -1.037593E-15 -1 -1.663507E-07
vn -7.263148E-15 1 1.492211E-07
vn -9.748679E-07 1.748456E-07 -1
vn -2.152407E-08 -2.576298E-07 1
vn 1 -6.239056E-09 3.06379E-07
vn -1 -1.565884E-09 -3.06379E-07
vn -1.037593E-15 -1 -1.663507E-07
vn -7.263148E-15 1 1.492211E-07
vn -9.748679E-07 1.748456E-07 -1
vn -2.152407E-08 -2.576298E-07 1
vn 0.7071074 -9.673838E-08 0.7071062
vn -1 1.026257E-08 1.794365E-15
vn 0 -1 -2.200147E-07
vn 0 1 1.506316E-07
vn -7.270339E-09 1.460046E-07 -1
vn 0.7071062 -1.489293E-07 0.7071074
vn 0.7071075 -1.015763E-07 0.7071062
vn 0.7071066 -1.127849E-07 0.707107
vn 0.7071068 -9.407329E-06 0.7071068
vn 0.7071074 6.552862E-06 0.7071062
vn -6.209826E-07 -8.143058E-10 1
vn 6.184484E-07 3.235046E-09 -1
vn 2.618056E-07 -1 9.677717E-17
vn -2.50046E-07 1 -5.968559E-13
vn 1 1.011965E-06 -4.792214E-06
vn -1 -4.324753E-07 -1.407334E-07
vn 2.881434E-06 8.01707E-10 1
vn -2.887812E-06 2.162034E-10 -1
vn -7.281769E-08 -1 -2.144583E-12
vn -8.886983E-08 1 9.147088E-13
vn 1 1.011964E-06 7.478405E-06
vn -1 -4.324753E-07 -1.407334E-07
vn -8.744732E-07 -3.738979E-09 1
vn 8.680944E-07 2.708679E-09 -1
vn 1.064261E-08 -1 -2.244411E-13
vn -7.21967E-09 1 -4.808272E-13
vn 1 1.011965E-06 -1.634491E-06
vn -1 -4.324753E-07 -1.407334E-07
vn 5.926779E-07 -8.854267E-08 -1
vn -5.888506E-07 8.714361E-08 1
vn -2.442098E-08 -1 1.003398E-07
vn -6.703085E-08 1 1.231784E-07
vn -1 1.276874E-06 8.397666E-07
vn 1 -4.324753E-07 -9.768519E-08
vn 4.293773E-07 -8.718204E-08 -1
vn -4.2555E-07 8.736995E-08 1
vn -2.670724E-07 -1 1.003397E-07
vn 2.595698E-07 1 1.231783E-07
vn -1 1.276874E-06 2.243783E-06
vn 1 -4.324753E-07 -9.768519E-08
vn -3.119853E-06 -1.740439E-07 -1
vn 3.126231E-06 1.750618E-07 1
vn 7.281769E-08 -1 1.748476E-07
vn 8.886983E-08 1 -1.748464E-07
vn -1 1.011963E-06 -7.239987E-06
vn 1 -4.324753E-07 -9.768519E-08
vn -0.7893525 1.322942E-07 0.6139402
vn 1 1.026257E-08 1.349112E-14
vn 1.258035E-15 -1 1.296764E-07
vn -1.258035E-15 1 -1.506316E-07
vn -0.6139401 1.10599E-07 0.7893527
vn -7.270325E-09 -2.036865E-07 -1
vn -0.7070771 0.009303737 0.7070754
vn 0.4516578 0.5263441 -0.7203937
vn -0.7070758 0.009303736 0.7070765
vn -0.6396017 -0.4264033 0.6396014
vn -1 -6.239112E-09 -3.063791E-07
vn 1 -1.565828E-09 3.063791E-07
vn 3.553655E-15 -1 3.411963E-07
vn 4.747085E-15 1 -3.240667E-07
vn 9.748678E-07 3.496912E-07 1
vn 2.152414E-08 -4.324754E-07 -1
vn -1 -6.239112E-09 -3.063791E-07
vn 1 -1.565828E-09 3.063791E-07
vn 3.553655E-15 -1 3.411963E-07
vn 4.747085E-15 1 -3.240667E-07
vn 9.748678E-07 3.496912E-07 1
vn 2.152414E-08 -4.324754E-07 -1
vn -1 -6.239112E-09 -3.063791E-07
vn 1 -1.565828E-09 3.063791E-07
vn 3.553655E-15 -1 3.411963E-07
vn 4.747085E-15 1 -3.240667E-07
vn 9.748678E-07 3.496912E-07 1
vn 2.152414E-08 -4.324754E-07 -1
vn -0.7525763 -2.046287E-07 -0.6585051
vn 1 1.026257E-08 5.755321E-14
vn 2.516059E-15 -1 3.948603E-07
vn -2.516063E-15 1 -3.254772E-07
vn 7.270278E-09 3.208502E-07 1
vn -0.6643643 -2.881854E-07 -0.7474089
vn -0.7068105 0.004619398 -0.7073878
vn -0.7071074 -2.727686E-06 -0.7071062
vn -0.7073886 0.004623177 -0.7068098
vn -0.577354 -0.5773485 -0.5773484
vt -0.09327991 0.06791436
vt -0.08490863 0.075525
vt -0.1891758 0.1902131
vt 0.03522303 0.1640254
vt -0.05486889 0.2901541
vt -0.06788863 0.2808543
vt 0.02220329 0.1547256
vt -0.08132614 0.1171796
vt -0.07648289 0.106955
vt -0.07110151 0.1220228
vt -0.08132614 0.1171796
vt -0.09155077 0.1123364
vt -0.07648288 0.106955
vt -0.09327989 0.06791437
vt -0.2059183 0.1749918
vt -0.1016512 0.06030374
vt 0.06037384 0.131928
vt 0.06752925 0.1176172
vt 0.2061655 0.1869353
vt 0.19901 0.2012461
vt 0.08132613 0.1171796
vt 0.0711015 0.1220228
vt 0.07648288 0.106955
vt 0.08132613 0.1171796
vt 0.07648288 0.106955
vt 0.09155077 0.1123364
vt -0.1891758 0.1902131
vt -0.197547 0.1826025
vt -0.09327991 0.06791436
vt -0.09327991 0.06791436
vt -0.197547 0.1826025
vt -0.2059183 0.1749918
vt -0.1998298 0.2742282
vt -0.02569073 0.1498433
vt -0.0222033 0.1547257
vt -0.1963423 0.2791106
vt 0.1998297 0.2742282
vt 0.1963422 0.2791106
vt 0.02220329 0.1547256
vt 0.02569072 0.1498432
vt -0.2289105 0.3164253
vt -0.2780157 0.178931
vt -0.07648289 0.106955
vt -0.02737778 0.2444493
vt 0.2289105 0.3164253
vt 0.02737778 0.2444493
vt 0.07648289 0.106955
vt 0.2780157 0.178931
vt 0.003130494 0.2455203
vt -0.002236075 0.2482035
vt -0.06752926 0.1176172
vt -0.06216269 0.1149339
vt -0.003130482 0.2455203
vt 0.06216271 0.1149339
vt 0.06752928 0.1176172
vt 0.002236087 0.2482036
vt -0.1963422 0.2791107
vt -0.02220327 0.1547256
vt 0.00395248 0.1913436
vt -0.1701864 0.3157287
vt 0.1963422 0.2791107
vt 0.1701864 0.3157287
vt -0.00395248 0.1913436
vt 0.02220327 0.1547256
vt -0.2780157 0.178931
vt -0.2796974 0.1742223
vt -0.07816462 0.1022462
vt -0.07648294 0.1069549
vt 0.2780157 0.178931
vt 0.07648294 0.1069549
vt 0.07816462 0.1022462
vt 0.2796974 0.1742223
vt -0.0675291 0.1176174
vt -0.1077783 0.137742
vt -0.1100144 0.1332699
vt -0.06976517 0.1131453
vt 0.06752925 0.1176171
vt 0.06976532 0.113145
vt 0.1100146 0.1332696
vt 0.1077785 0.1377417
vt -0.164374 0.323866
vt 0.009764859 0.199481
vt 0.03592061 0.2360989
vt -0.1382183 0.360484
vt 0.164374 0.323866
vt 0.1382183 0.360484
vt -0.03592061 0.2360989
vt -0.00976486 0.199481
vt -0.2780157 0.178931
vt -0.2796974 0.1742223
vt -0.07816462 0.1022462
vt -0.07648294 0.1069549
vt 0.2780157 0.178931
vt 0.07648294 0.1069549
vt 0.07816461 0.1022462
vt 0.2796974 0.1742223
vt -0.1167226 0.1422142
vt -0.1569718 0.1623388
vt -0.1592079 0.1578666
vt -0.1189587 0.137742
vt 0.1167227 0.1422138
vt 0.1189588 0.1377417
vt 0.159208 0.1578663
vt 0.156972 0.1623385
vt -0.1324059 0.3686213
vt 0.04173296 0.2442363
vt 0.06788872 0.2808543
vt -0.1062502 0.4052393
vt 0.1324059 0.3686213
vt 0.1062502 0.4052393
vt -0.06788872 0.2808543
vt -0.04173296 0.2442363
vt -0.2780157 0.1789311
vt -0.2796974 0.1742224
vt -0.07816462 0.1022463
vt -0.07648294 0.106955
vt 0.2780157 0.1789311
vt 0.07648294 0.106955
vt 0.07816461 0.1022463
vt 0.2796974 0.1742224
vt -0.1659161 0.166811
vt -0.2061653 0.1869356
vt -0.2084014 0.1824634
vt -0.1681521 0.1623388
vt 0.1659162 0.1668106
vt 0.1681523 0.1623385
vt 0.2084015 0.1824631
vt 0.2061655 0.1869352
vt -0.03472707 0.3112035
vt -0.02861251 0.3016321
vt 0.1027337 0.3828242
vt 0.1963423 0.2791106
vt 0.1062503 0.4052393
vt 0.09323059 0.3959395
vt 0.1833225 0.2698108
vt -0.2726343 0.1939989
vt -0.2780157 0.178931
vt -0.2629478 0.1735496
vt 0.2726343 0.1939989
vt 0.2629478 0.1735496
vt 0.2780157 0.178931
vt -0.0603738 0.131928
vt -0.19901 0.2012461
vt -0.2061654 0.1869353
vt -0.06752922 0.1176172
vt -0.02861231 0.3016318
vt -0.02427145 0.2911363
vt 0.1131894 0.3627569
vt -0.02861254 0.301632
vt 0.107728 0.3710744
vt 0.1027337 0.3828242
vt 0.1131893 0.362757
vt 0.1077282 0.3710742
vt -0.02861237 0.3016319
vt -0.02427391 0.2911356
vt -0.02861482 0.3016312
vt -0.03472941 0.3112026
vt 0.1027356 0.3828244
vt 0.1077299 0.3710746
vt 0.113191 0.3627574
vt 0.00178878 0.2490981
vt 0.06752925 0.1176171
vt 0.1077785 0.1377417
vt 0.04203802 0.2692227
vt -0.001788781 0.2490981
vt -0.04203805 0.2692227
vt -0.1077785 0.1377417
vt -0.06752925 0.1176171
vt -0.02233263 0.2437096
vt -0.02704133 0.2453912
vt -0.07648294 0.106955
vt -0.07177422 0.1052734
vt 0.02233263 0.2437096
vt 0.07177422 0.1052733
vt 0.07648294 0.106955
vt 0.02704136 0.2453912
vt -0.01813466 0.1518185
vt 0.008020857 0.1884367
vt 0.003952179 0.1913428
vt -0.02220334 0.1547247
vt 0.01813461 0.1518194
vt 0.02220328 0.1547256
vt -0.003952463 0.1913436
vt -0.008021135 0.1884374
vt 0.100623 0.2973973
vt 0.1659161 0.1668108
vt 0.2061654 0.1869354
vt 0.1408722 0.3175218
vt -0.1006229 0.2973973
vt -0.1408722 0.3175219
vt -0.2061654 0.1869354
vt -0.1659161 0.1668108
vt -0.02266945 0.2427678
vt -0.02737814 0.2444495
vt -0.07648289 0.106955
vt -0.07177418 0.1052733
vt 0.02266946 0.2427678
vt 0.07177418 0.1052733
vt 0.07648289 0.106955
vt 0.02737815 0.2444495
vt 0.04580234 0.2413305
vt 0.07195847 0.2779483
vt 0.06788984 0.2808545
vt 0.04173371 0.2442368
vt -0.04580165 0.24133
vt -0.04173299 0.2442362
vt -0.06788874 0.2808542
vt -0.07195739 0.277948
vt 0.05142952 0.2728003
vt 0.1167227 0.1422139
vt 0.156972 0.1623385
vt 0.09167875 0.2929249
vt -0.05142952 0.2728003
vt -0.09167876 0.2929249
vt -0.156972 0.1623385
vt -0.1167227 0.1422139
vt -0.02266897 0.2427677
vt -0.02737768 0.2444494
vt -0.07648294 0.106955
vt -0.07177423 0.1052733
vt 0.02266899 0.2427676
vt 0.07177424 0.1052733
vt 0.07648295 0.106955
vt 0.02737769 0.2444493
vt 0.01383344 0.1965743
vt 0.03998912 0.2331924
vt 0.03592045 0.2360986
vt 0.009764777 0.1994805
vt -0.01383352 0.1965747
vt -0.009764845 0.1994809
vt -0.03592059 0.2360989
vt -0.03998926 0.2331927
vt -0.116723 0.1422135
vt -0.05142974 0.2728
vt -0.09167894 0.2929246
vt -0.1569722 0.1623382
vt 0.116723 0.1422135
vt 0.1569722 0.1623382
vt 0.09167894 0.2929246
vt 0.05142974 0.2728
vt -0.2827244 0.1806123
vt -0.2780157 0.1789307
vt -0.2289105 0.316425
vt -0.2336192 0.3181067
vt 0.2827244 0.1806124
vt 0.2336192 0.3181068
vt 0.2289105 0.3164251
vt 0.2780157 0.1789308
vt 0.1684434 0.3267718
vt 0.1422878 0.3633898
vt 0.1382191 0.3604837
vt 0.1643748 0.3238656
vt -0.1684428 0.326772
vt -0.1643741 0.3238658
vt -0.1382184 0.3604839
vt -0.1422871 0.3633901
vt -0.06752957 0.1176167
vt -0.002236252 0.2482032
vt -0.04248547 0.2683279
vt -0.1077788 0.1377414
vt 0.06752957 0.1176167
vt 0.1077788 0.1377414
vt 0.04248547 0.2683279
vt 0.00223625 0.2482032
vt -0.2827244 0.1806122
vt -0.2780157 0.1789305
vt -0.2289105 0.316425
vt -0.2336192 0.3181067
vt 0.2827244 0.1806123
vt 0.2336192 0.3181067
vt 0.2289105 0.3164251
vt 0.2780157 0.1789306
vt 0.2004118 0.2820159
vt 0.1742562 0.318634
vt 0.1701876 0.3157279
vt 0.1963431 0.2791097
vt -0.2004108 0.2820167
vt -0.1963422 0.2791105
vt -0.1701865 0.3157285
vt -0.1742551 0.3186347
vt -0.165916 0.1668113
vt -0.1006228 0.2973978
vt -0.140872 0.3175224
vt -0.2061652 0.186936
vt 0.165916 0.1668113
vt 0.2061652 0.1869359
vt 0.1408721 0.3175224
vt 0.1006228 0.2973978
vt -0.2827239 0.1806122
vt -0.2780153 0.1789305
vt -0.2289105 0.3164251
vt -0.2336192 0.3181067
vt 0.2827239 0.1806122
vt 0.2336192 0.3181067
vt 0.2289105 0.3164251
vt 0.2780152 0.1789305
vt 0.1364715 0.3715287
vt 0.1103155 0.4081465
vt 0.1062468 0.4052403
vt 0.1324029 0.3686225
vt -0.1364748 0.3715274
vt -0.1324061 0.3686212
vt -0.1062504 0.4052393
vt -0.1103191 0.4081454
vt 0.1615644 0.03195906
vt 0.1694031 0.02315252
vt 0.2551482 0.1522756
vt -0.1833225 0.2698108
vt -0.09323054 0.3959395
vt -0.1062503 0.4052393
vt -0.1963422 0.2791106
vt -0.2138427 0.3110437
vt -0.2289106 0.3164251
vt -0.2342919 0.3013572
vt 0.2342919 0.3013572
vt 0.2289106 0.3164251
vt 0.2138427 0.3110437
vt 0.1035762 0.05782779
vt 0.2103332 0.1666255
vt 0.09380266 0.06442159
vt -0.009391639 0.2338926
vt -0.002236228 0.2482034
vt -0.1408724 0.3175215
vt -0.1480279 0.3032107
vt 0.2425366 0.1473385
vt 0.2340988 0.1548754
vt 0.1328369 0.0415086
vt -0.03013293 0.02407413
vt -0.02857232 0.01307676
vt -0.0270117 0.002079371
vt 0.1328365 0.04150879
vt 0.2340986 0.1548754
vt 0.2256608 0.1624122
vt -0.04862812 -0.08770975
vt -0.04639348 -0.07613363
vt -0.05076252 -0.06518324
vt -0.009764953 0.199481
vt 0.164374 0.323866
vt 0.1382183 0.360484
vt -0.03592068 0.236099
vt 0.009764953 0.199481
vt 0.03592068 0.236099
vt -0.1382183 0.360484
vt -0.164374 0.323866
vt -0.02737774 0.2444491
vt -0.02569606 0.2491578
vt -0.2272288 0.3211338
vt -0.2289105 0.3164251
vt 0.02737775 0.2444491
vt 0.2289105 0.3164251
vt 0.2272288 0.3211338
vt 0.02569607 0.2491578
vt 0.05142971 0.2728003
vt 0.09167895 0.2929249
vt 0.08944289 0.2973971
vt 0.04919364 0.2772724
vt -0.05142973 0.2728003
vt -0.04919366 0.2772724
vt -0.08944287 0.297397
vt -0.09167894 0.2929249
vt -0.0417331 0.2442363
vt 0.1324058 0.3686213
vt 0.1062501 0.4052393
vt -0.06788883 0.2808544
vt 0.0417331 0.2442363
vt 0.06788883 0.2808544
vt -0.1062501 0.4052393
vt -0.1324058 0.3686213
vt -0.02737773 0.244449
vt -0.02569605 0.2491577
vt -0.2272288 0.3211338
vt -0.2289105 0.316425
vt 0.02737774 0.244449
vt 0.2289105 0.3164251
vt 0.2272288 0.3211338
vt 0.02569606 0.2491577
vt 0.1006232 0.297397
vt 0.1408725 0.3175216
vt 0.1386364 0.3219938
vt 0.09838717 0.3018691
vt -0.1006233 0.297397
vt -0.09838719 0.3018691
vt -0.1386364 0.3219937
vt -0.1408725 0.3175216
vt 0.02220315 0.1547257
vt 0.1963421 0.2791107
vt 0.1701864 0.3157287
vt -0.003952573 0.1913437
vt -0.02220315 0.1547257
vt 0.003952572 0.1913437
vt -0.1701864 0.3157287
vt -0.1963421 0.2791107
vt -0.02737774 0.2444491
vt -0.02569606 0.2491578
vt -0.2272288 0.3211338
vt -0.2289105 0.3164251
vt 0.02737775 0.2444491
vt 0.2289105 0.3164251
vt 0.2272288 0.3211338
vt 0.02569607 0.2491578
vt 0.002236219 0.2482036
vt 0.04248545 0.2683282
vt 0.04024938 0.2728003
vt 1.533657E-07 0.2526757
vt -0.002236231 0.2482035
vt -1.646879E-07 0.2526757
vt -0.04024939 0.2728003
vt -0.04248546 0.2683282
vt 0.003182593 0.2439924
vt 0.007347572 0.2538236
vt -0.1332477 0.3175571
vt -0.02220321 0.1547256
vt 0.06788867 0.2808543
vt 0.05486893 0.2901542
vt -0.03522294 0.1640255
vt -0.03275917 0.2293812
vt -0.0273778 0.2444491
vt -0.04244567 0.2498305
vt 0.03275917 0.2293812
vt 0.04244567 0.2498305
vt 0.02737779 0.2444491
vt 0.009391638 0.2338926
vt 0.1480278 0.3032107
vt 0.1408724 0.3175215
vt 0.002236226 0.2482034
vt 0.004984425 0.2616091
vt 0.01132793 0.2718931
vt -0.1268756 0.3420698
vt 0.006226391 0.2585213
vt -0.1290186 0.330067
vt -0.1351487 0.3205056
vt -0.1354073 0.3201144
vt -0.1292928 0.3296858
vt -0.1249519 0.3401814
vt -0.1246319 0.3405267
vt -0.1289916 0.330039
vt 0.006241904 0.2584716
vt -0.0154224 0.2490941
vt -0.01843892 0.2373936
vt -0.01882131 0.2267234
o group2074068477
g mesh2074068477
usemtl mat19
f 12/36/11 11/35/11 10/34/11 9/33/11
f 16/40/12 15/39/12 14/38/12 13/37/12
f 10/44/13 16/43/13 13/42/13 9/41/13
f 14/48/14 15/47/14 11/46/14 12/45/14
f 13/52/15 14/51/15 12/50/15 9/49/15
f 11/56/16 15/55/16 16/54/16 10/53/16
o group939885634
g mesh939885634
usemtl mat19
f 3/3/1 2/2/1 1/1/1
f 7/7/2 6/6/2 5/5/2 4/4/2
f 2/10/3 7/9/3 1/8/3
f 7/13/4 4/12/4 1/11/4
f 4/16/5 5/15/5 1/14/5
f 3/20/6 6/19/6 7/18/6 2/17/6
f 6/23/7 3/22/7 8/21/7
f 5/26/8 6/25/8 8/24/8
f 1/29/9 8/28/9 3/27/9
f 5/32/10 8/31/10 1/30/10
f 20/60/17 19/59/17 18/58/17 17/57/17
f 24/64/18 23/63/18 22/62/18 21/61/18
f 18/68/19 24/67/19 21/66/19 17/65/19
f 22/72/20 23/71/20 19/70/20 20/69/20
f 21/76/21 22/75/21 20/74/21 17/73/21
f 19/80/22 23/79/22 24/78/22 18/77/22
f 28/84/23 27/83/23 26/82/23 25/81/23
f 32/88/24 31/87/24 30/86/24 29/85/24
f 26/92/25 32/91/25 29/90/25 25/89/25
f 30/96/26 31/95/26 27/94/26 28/93/26
f 29/100/27 30/99/27 28/98/27 25/97/27
f 27/104/28 31/103/28 32/102/28 26/101/28
f 36/108/29 35/107/29 34/106/29 33/105/29
f 40/112/30 39/111/30 38/110/30 37/109/30
f 34/116/31 40/115/31 37/114/31 33/113/31
f 38/120/32 39/119/32 35/118/32 36/117/32
f 37/124/33 38/123/33 36/122/33 33/121/33
f 35/128/34 39/127/34 40/126/34 34/125/34
f 43/131/35 42/130/35 41/129/35
f 47/135/36 46/134/36 45/133/36 44/132/36
f 47/138/37 44/137/37 41/136/37
f 45/141/38 46/140/38 43/139/38
f 44/145/39 45/144/39 43/143/39 41/142/39
f 46/148/40 47/147/40 42/146/40
f 43/151/41 48/150/41 42/149/41
f 42/154/42 48/153/42 46/152/42
f 41/157/43 42/156/43 47/155/43
f 46/160/44 48/159/44 43/158/44
f 52/164/45 51/163/45 50/162/45 49/161/45
f 56/168/46 55/167/46 54/166/46 53/165/46
f 50/172/47 56/171/47 53/170/47 49/169/47
f 54/176/48 55/175/48 51/174/48 52/173/48
f 53/180/49 54/179/49 52/178/49 49/177/49
f 51/184/50 55/183/50 56/182/50 50/181/50
f 60/188/51 59/187/51 58/186/51 57/185/51
f 64/192/52 63/191/52 62/190/52 61/189/52
f 58/196/53 64/195/53 61/194/53 57/193/53
f 62/200/54 63/199/54 59/198/54 60/197/54
f 61/204/55 62/203/55 60/202/55 57/201/55
f 59/208/56 63/207/56 64/206/56 58/205/56
f 68/212/57 67/211/57 66/210/57 65/209/57
f 72/216/58 71/215/58 70/214/58 69/213/58
f 66/220/59 72/219/59 69/218/59 65/217/59
f 70/224/60 71/223/60 67/222/60 68/221/60
f 69/228/61 70/227/61 68/226/61 65/225/61
f 67/232/62 71/231/62 72/230/62 66/229/62
o group27219902
g mesh27219902
usemtl mat19
f 76/236/63 75/235/63 74/234/63 73/233/63
f 80/240/64 79/239/64 78/238/64 77/237/64
f 74/244/65 80/243/65 77/242/65 73/241/65
f 78/248/66 79/247/66 75/246/66 76/245/66
f 77/252/67 78/251/67 76/250/67 73/249/67
f 75/256/68 79/255/68 80/254/68 74/253/68
f 84/260/69 83/259/69 82/258/69 81/257/69
f 88/264/70 87/263/70 86/262/70 85/261/70
f 82/268/71 88/267/71 85/266/71 81/265/71
f 86/272/72 87/271/72 83/270/72 84/269/72
f 85/276/73 86/275/73 84/274/73 81/273/73
f 83/280/74 87/279/74 88/278/74 82/277/74
f 92/284/75 91/283/75 90/282/75 89/281/75
f 96/288/76 95/287/76 94/286/76 93/285/76
f 90/292/77 96/291/77 93/290/77 89/289/77
f 94/296/78 95/295/78 91/294/78 92/293/78
f 93/300/79 94/299/79 92/298/79 89/297/79
f 91/304/80 95/303/80 96/302/80 90/301/80
f 99/307/81 98/306/81 97/305/81
f 103/311/82 102/310/82 101/309/82 100/308/82
f 98/314/83 103/313/83 100/312/83
f 101/317/84 102/316/84 99/315/84
f 100/320/85 101/319/85 97/318/85
f 99/324/86 102/323/86 103/322/86 98/321/86
f 97/327/87 104/326/87 99/325/87
f 99/330/88 104/329/88 101/328/88
f 101/333/89 104/332/89 97/331/89
f 100/336/90 97/335/90 98/334/90
f 108/340/91 107/339/91 106/338/91 105/337/91
f 112/344/92 111/343/92 110/342/92 109/341/92
f 106/348/93 112/347/93 109/346/93 105/345/93
f 110/352/94 111/351/94 107/350/94 108/349/94
f 109/356/95 110/355/95 108/354/95 105/353/95
f 107/360/96 111/359/96 112/358/96 106/357/96
f 116/364/97 115/363/97 114/362/97 113/361/97
f 120/368/98 119/367/98 118/366/98 117/365/98
f 114/372/99 120/371/99 117/370/99 113/369/99
f 118/376/100 119/375/100 115/374/100 116/373/100
f 117/380/101 118/379/101 116/378/101 113/377/101
f 115/384/102 119/383/102 120/382/102 114/381/102
f 124/388/103 123/387/103 122/386/103 121/385/103
f 128/392/104 127/391/104 126/390/104 125/389/104
f 122/396/105 128/395/105 125/394/105 121/393/105
f 126/400/106 127/399/106 123/398/106 124/397/106
f 125/404/107 126/403/107 124/402/107 121/401/107
f 123/408/108 127/407/108 128/406/108 122/405/108
f 131/411/109 130/410/109 129/409/109
f 135/415/110 134/414/110 133/413/110 132/412/110
f 135/418/111 132/417/111 129/416/111
f 133/421/112 134/420/112 131/419/112
f 132/425/113 133/424/113 131/423/113 129/422/113
f 134/428/114 135/427/114 130/426/114
f 131/431/115 136/430/115 130/429/115
f 134/434/116 136/433/116 131/432/116
f 130/437/117 136/436/117 134/435/117
f 129/440/118 130/439/118 135/438/118
